<mxfile host="app.diagrams.net" modified="2023-09-13T03:01:22.988Z" agent="Mozilla/5.0 (Windows NT 10.0; Win64; x64) AppleWebKit/537.36 (KHTML, like Gecko) Chrome/105.0.0.0 Safari/537.36" etag="sUtdDjQumQOLonKU6Fto" version="21.7.2" type="github">
  <diagram id="C5RBs43oDa-KdzZeNtuy" name="Page-1">
    <mxGraphModel dx="989" dy="527" grid="1" gridSize="10" guides="1" tooltips="1" connect="1" arrows="1" fold="1" page="1" pageScale="1" pageWidth="827" pageHeight="1169" math="0" shadow="0">
      <root>
        <mxCell id="WIyWlLk6GJQsqaUBKTNV-0" />
        <mxCell id="WIyWlLk6GJQsqaUBKTNV-1" parent="WIyWlLk6GJQsqaUBKTNV-0" />
        <mxCell id="uYcCShCzFwPCH8ghl1TK-3" value="" style="edgeStyle=orthogonalEdgeStyle;rounded=0;orthogonalLoop=1;jettySize=auto;html=1;" edge="1" parent="WIyWlLk6GJQsqaUBKTNV-1" source="WIyWlLk6GJQsqaUBKTNV-3" target="uYcCShCzFwPCH8ghl1TK-2">
          <mxGeometry relative="1" as="geometry" />
        </mxCell>
        <mxCell id="WIyWlLk6GJQsqaUBKTNV-3" value="黑卡利益点页面" style="rounded=1;whiteSpace=wrap;html=1;fontSize=12;glass=0;strokeWidth=1;shadow=0;" parent="WIyWlLk6GJQsqaUBKTNV-1" vertex="1">
          <mxGeometry x="160" y="79" width="120" height="40" as="geometry" />
        </mxCell>
        <mxCell id="uYcCShCzFwPCH8ghl1TK-5" value="" style="edgeStyle=orthogonalEdgeStyle;rounded=0;orthogonalLoop=1;jettySize=auto;html=1;" edge="1" parent="WIyWlLk6GJQsqaUBKTNV-1" source="uYcCShCzFwPCH8ghl1TK-2" target="uYcCShCzFwPCH8ghl1TK-4">
          <mxGeometry relative="1" as="geometry" />
        </mxCell>
        <mxCell id="uYcCShCzFwPCH8ghl1TK-6" value="提交" style="edgeLabel;html=1;align=center;verticalAlign=middle;resizable=0;points=[];" vertex="1" connectable="0" parent="uYcCShCzFwPCH8ghl1TK-5">
          <mxGeometry x="-0.075" y="7" relative="1" as="geometry">
            <mxPoint x="13" as="offset" />
          </mxGeometry>
        </mxCell>
        <mxCell id="uYcCShCzFwPCH8ghl1TK-2" value="新建/编辑黑卡利益点内容" style="whiteSpace=wrap;html=1;rounded=1;glass=0;strokeWidth=1;shadow=0;" vertex="1" parent="WIyWlLk6GJQsqaUBKTNV-1">
          <mxGeometry x="360" y="70" width="120" height="60" as="geometry" />
        </mxCell>
        <mxCell id="uYcCShCzFwPCH8ghl1TK-13" value="" style="edgeStyle=orthogonalEdgeStyle;rounded=0;orthogonalLoop=1;jettySize=auto;html=1;" edge="1" parent="WIyWlLk6GJQsqaUBKTNV-1" source="uYcCShCzFwPCH8ghl1TK-4" target="uYcCShCzFwPCH8ghl1TK-9">
          <mxGeometry relative="1" as="geometry" />
        </mxCell>
        <mxCell id="uYcCShCzFwPCH8ghl1TK-16" value="" style="edgeStyle=orthogonalEdgeStyle;rounded=0;orthogonalLoop=1;jettySize=auto;html=1;" edge="1" parent="WIyWlLk6GJQsqaUBKTNV-1" source="uYcCShCzFwPCH8ghl1TK-4" target="uYcCShCzFwPCH8ghl1TK-15">
          <mxGeometry relative="1" as="geometry" />
        </mxCell>
        <mxCell id="uYcCShCzFwPCH8ghl1TK-4" value="后端保存新建/编辑黑卡利益点内容" style="whiteSpace=wrap;html=1;rounded=1;glass=0;strokeWidth=1;shadow=0;" vertex="1" parent="WIyWlLk6GJQsqaUBKTNV-1">
          <mxGeometry x="360" y="210" width="120" height="60" as="geometry" />
        </mxCell>
        <mxCell id="uYcCShCzFwPCH8ghl1TK-10" value="" style="edgeStyle=orthogonalEdgeStyle;rounded=0;orthogonalLoop=1;jettySize=auto;html=1;" edge="1" parent="WIyWlLk6GJQsqaUBKTNV-1" source="uYcCShCzFwPCH8ghl1TK-7" target="uYcCShCzFwPCH8ghl1TK-9">
          <mxGeometry relative="1" as="geometry" />
        </mxCell>
        <mxCell id="uYcCShCzFwPCH8ghl1TK-7" value="进入商详页" style="whiteSpace=wrap;html=1;rounded=1;glass=0;strokeWidth=1;shadow=0;" vertex="1" parent="WIyWlLk6GJQsqaUBKTNV-1">
          <mxGeometry x="160" y="350" width="120" height="60" as="geometry" />
        </mxCell>
        <mxCell id="uYcCShCzFwPCH8ghl1TK-12" value="" style="edgeStyle=orthogonalEdgeStyle;rounded=0;orthogonalLoop=1;jettySize=auto;html=1;" edge="1" parent="WIyWlLk6GJQsqaUBKTNV-1" source="uYcCShCzFwPCH8ghl1TK-9" target="uYcCShCzFwPCH8ghl1TK-11">
          <mxGeometry relative="1" as="geometry" />
        </mxCell>
        <mxCell id="uYcCShCzFwPCH8ghl1TK-9" value="后端根据用户信息和商品查询信息，判断显示黑卡利益点内容" style="whiteSpace=wrap;html=1;rounded=1;glass=0;strokeWidth=1;shadow=0;" vertex="1" parent="WIyWlLk6GJQsqaUBKTNV-1">
          <mxGeometry x="360" y="350" width="120" height="60" as="geometry" />
        </mxCell>
        <mxCell id="uYcCShCzFwPCH8ghl1TK-11" value="接口返回结果" style="whiteSpace=wrap;html=1;rounded=1;glass=0;strokeWidth=1;shadow=0;" vertex="1" parent="WIyWlLk6GJQsqaUBKTNV-1">
          <mxGeometry x="560" y="350" width="120" height="60" as="geometry" />
        </mxCell>
        <mxCell id="uYcCShCzFwPCH8ghl1TK-14" value="读取" style="text;html=1;align=center;verticalAlign=middle;resizable=0;points=[];autosize=1;strokeColor=none;fillColor=none;" vertex="1" parent="WIyWlLk6GJQsqaUBKTNV-1">
          <mxGeometry x="414" y="290" width="50" height="30" as="geometry" />
        </mxCell>
        <mxCell id="uYcCShCzFwPCH8ghl1TK-15" value="黑卡利益点页面列表显示内容" style="rounded=1;whiteSpace=wrap;html=1;glass=0;strokeWidth=1;shadow=0;" vertex="1" parent="WIyWlLk6GJQsqaUBKTNV-1">
          <mxGeometry x="560" y="210" width="120" height="60" as="geometry" />
        </mxCell>
        <mxCell id="uYcCShCzFwPCH8ghl1TK-24" value="" style="edgeStyle=orthogonalEdgeStyle;rounded=0;orthogonalLoop=1;jettySize=auto;html=1;" edge="1" parent="WIyWlLk6GJQsqaUBKTNV-1" source="uYcCShCzFwPCH8ghl1TK-20" target="uYcCShCzFwPCH8ghl1TK-23">
          <mxGeometry relative="1" as="geometry" />
        </mxCell>
        <mxCell id="uYcCShCzFwPCH8ghl1TK-20" value="黑卡利益点页面" style="rounded=1;whiteSpace=wrap;html=1;fontSize=12;glass=0;strokeWidth=1;shadow=0;" vertex="1" parent="WIyWlLk6GJQsqaUBKTNV-1">
          <mxGeometry x="70" y="850" width="120" height="40" as="geometry" />
        </mxCell>
        <mxCell id="uYcCShCzFwPCH8ghl1TK-28" value="" style="edgeStyle=orthogonalEdgeStyle;rounded=0;orthogonalLoop=1;jettySize=auto;html=1;" edge="1" parent="WIyWlLk6GJQsqaUBKTNV-1" source="uYcCShCzFwPCH8ghl1TK-23" target="uYcCShCzFwPCH8ghl1TK-27">
          <mxGeometry relative="1" as="geometry" />
        </mxCell>
        <mxCell id="uYcCShCzFwPCH8ghl1TK-30" value="" style="edgeStyle=orthogonalEdgeStyle;rounded=0;orthogonalLoop=1;jettySize=auto;html=1;" edge="1" parent="WIyWlLk6GJQsqaUBKTNV-1" source="uYcCShCzFwPCH8ghl1TK-23" target="uYcCShCzFwPCH8ghl1TK-29">
          <mxGeometry relative="1" as="geometry" />
        </mxCell>
        <mxCell id="uYcCShCzFwPCH8ghl1TK-23" value="新增/编辑" style="rhombus;whiteSpace=wrap;html=1;rounded=1;glass=0;strokeWidth=1;shadow=0;" vertex="1" parent="WIyWlLk6GJQsqaUBKTNV-1">
          <mxGeometry x="270" y="830" width="80" height="80" as="geometry" />
        </mxCell>
        <mxCell id="uYcCShCzFwPCH8ghl1TK-36" style="edgeStyle=orthogonalEdgeStyle;rounded=0;orthogonalLoop=1;jettySize=auto;html=1;entryX=0;entryY=0.5;entryDx=0;entryDy=0;" edge="1" parent="WIyWlLk6GJQsqaUBKTNV-1" source="uYcCShCzFwPCH8ghl1TK-27" target="uYcCShCzFwPCH8ghl1TK-34">
          <mxGeometry relative="1" as="geometry" />
        </mxCell>
        <mxCell id="uYcCShCzFwPCH8ghl1TK-27" value="显示新建表单，表单项都为空" style="rounded=1;whiteSpace=wrap;html=1;glass=0;strokeWidth=1;shadow=0;" vertex="1" parent="WIyWlLk6GJQsqaUBKTNV-1">
          <mxGeometry x="250" y="720" width="120" height="60" as="geometry" />
        </mxCell>
        <mxCell id="uYcCShCzFwPCH8ghl1TK-37" style="edgeStyle=orthogonalEdgeStyle;rounded=0;orthogonalLoop=1;jettySize=auto;html=1;entryX=0;entryY=0.5;entryDx=0;entryDy=0;" edge="1" parent="WIyWlLk6GJQsqaUBKTNV-1" source="uYcCShCzFwPCH8ghl1TK-29" target="uYcCShCzFwPCH8ghl1TK-34">
          <mxGeometry relative="1" as="geometry" />
        </mxCell>
        <mxCell id="uYcCShCzFwPCH8ghl1TK-29" value="显示编辑表单，回显历史编辑数据" style="rounded=1;whiteSpace=wrap;html=1;glass=0;strokeWidth=1;shadow=0;" vertex="1" parent="WIyWlLk6GJQsqaUBKTNV-1">
          <mxGeometry x="250" y="958" width="120" height="60" as="geometry" />
        </mxCell>
        <mxCell id="uYcCShCzFwPCH8ghl1TK-31" value="新增" style="text;html=1;align=center;verticalAlign=middle;resizable=0;points=[];autosize=1;strokeColor=none;fillColor=none;" vertex="1" parent="WIyWlLk6GJQsqaUBKTNV-1">
          <mxGeometry x="300" y="800" width="50" height="30" as="geometry" />
        </mxCell>
        <mxCell id="uYcCShCzFwPCH8ghl1TK-32" value="编辑" style="text;html=1;align=center;verticalAlign=middle;resizable=0;points=[];autosize=1;strokeColor=none;fillColor=none;" vertex="1" parent="WIyWlLk6GJQsqaUBKTNV-1">
          <mxGeometry x="305" y="928" width="50" height="30" as="geometry" />
        </mxCell>
        <mxCell id="uYcCShCzFwPCH8ghl1TK-40" value="" style="edgeStyle=orthogonalEdgeStyle;rounded=0;orthogonalLoop=1;jettySize=auto;html=1;" edge="1" parent="WIyWlLk6GJQsqaUBKTNV-1" source="uYcCShCzFwPCH8ghl1TK-34" target="uYcCShCzFwPCH8ghl1TK-39">
          <mxGeometry relative="1" as="geometry" />
        </mxCell>
        <mxCell id="uYcCShCzFwPCH8ghl1TK-41" value="提交" style="edgeLabel;html=1;align=center;verticalAlign=middle;resizable=0;points=[];" vertex="1" connectable="0" parent="uYcCShCzFwPCH8ghl1TK-40">
          <mxGeometry x="-0.275" y="6" relative="1" as="geometry">
            <mxPoint x="-2" y="-4" as="offset" />
          </mxGeometry>
        </mxCell>
        <mxCell id="uYcCShCzFwPCH8ghl1TK-45" value="" style="edgeStyle=orthogonalEdgeStyle;rounded=0;orthogonalLoop=1;jettySize=auto;html=1;" edge="1" parent="WIyWlLk6GJQsqaUBKTNV-1" source="uYcCShCzFwPCH8ghl1TK-34" target="uYcCShCzFwPCH8ghl1TK-44">
          <mxGeometry relative="1" as="geometry" />
        </mxCell>
        <mxCell id="uYcCShCzFwPCH8ghl1TK-63" value="取消" style="edgeLabel;html=1;align=center;verticalAlign=middle;resizable=0;points=[];" vertex="1" connectable="0" parent="uYcCShCzFwPCH8ghl1TK-45">
          <mxGeometry x="-0.4" y="9" relative="1" as="geometry">
            <mxPoint x="11" y="16" as="offset" />
          </mxGeometry>
        </mxCell>
        <mxCell id="uYcCShCzFwPCH8ghl1TK-34" value="提交/取消" style="rhombus;whiteSpace=wrap;html=1;rounded=1;glass=0;strokeWidth=1;shadow=0;" vertex="1" parent="WIyWlLk6GJQsqaUBKTNV-1">
          <mxGeometry x="450" y="830" width="80" height="80" as="geometry" />
        </mxCell>
        <mxCell id="uYcCShCzFwPCH8ghl1TK-48" value="" style="edgeStyle=orthogonalEdgeStyle;rounded=0;orthogonalLoop=1;jettySize=auto;html=1;entryX=0;entryY=0.5;entryDx=0;entryDy=0;" edge="1" parent="WIyWlLk6GJQsqaUBKTNV-1" source="uYcCShCzFwPCH8ghl1TK-39" target="uYcCShCzFwPCH8ghl1TK-55">
          <mxGeometry relative="1" as="geometry">
            <mxPoint x="770" y="870" as="targetPoint" />
          </mxGeometry>
        </mxCell>
        <mxCell id="uYcCShCzFwPCH8ghl1TK-54" value="" style="edgeStyle=orthogonalEdgeStyle;rounded=0;orthogonalLoop=1;jettySize=auto;html=1;" edge="1" parent="WIyWlLk6GJQsqaUBKTNV-1" source="uYcCShCzFwPCH8ghl1TK-39" target="uYcCShCzFwPCH8ghl1TK-53">
          <mxGeometry relative="1" as="geometry" />
        </mxCell>
        <mxCell id="uYcCShCzFwPCH8ghl1TK-64" value="否" style="edgeLabel;html=1;align=center;verticalAlign=middle;resizable=0;points=[];" vertex="1" connectable="0" parent="uYcCShCzFwPCH8ghl1TK-54">
          <mxGeometry x="-0.375" y="9" relative="1" as="geometry">
            <mxPoint as="offset" />
          </mxGeometry>
        </mxCell>
        <mxCell id="uYcCShCzFwPCH8ghl1TK-39" value="表单校验是否通过" style="rhombus;whiteSpace=wrap;html=1;rounded=1;glass=0;strokeWidth=1;shadow=0;" vertex="1" parent="WIyWlLk6GJQsqaUBKTNV-1">
          <mxGeometry x="590" y="830" width="110" height="80" as="geometry" />
        </mxCell>
        <mxCell id="uYcCShCzFwPCH8ghl1TK-44" value="关闭录入表单" style="whiteSpace=wrap;html=1;rounded=1;glass=0;strokeWidth=1;shadow=0;" vertex="1" parent="WIyWlLk6GJQsqaUBKTNV-1">
          <mxGeometry x="430" y="990" width="120" height="60" as="geometry" />
        </mxCell>
        <mxCell id="uYcCShCzFwPCH8ghl1TK-49" value="是" style="text;html=1;align=center;verticalAlign=middle;resizable=0;points=[];autosize=1;strokeColor=none;fillColor=none;" vertex="1" parent="WIyWlLk6GJQsqaUBKTNV-1">
          <mxGeometry x="700" y="840" width="40" height="30" as="geometry" />
        </mxCell>
        <mxCell id="uYcCShCzFwPCH8ghl1TK-53" value="显示表单错误信息" style="whiteSpace=wrap;html=1;rounded=1;glass=0;strokeWidth=1;shadow=0;" vertex="1" parent="WIyWlLk6GJQsqaUBKTNV-1">
          <mxGeometry x="585" y="990" width="120" height="60" as="geometry" />
        </mxCell>
        <mxCell id="uYcCShCzFwPCH8ghl1TK-59" value="" style="edgeStyle=orthogonalEdgeStyle;rounded=0;orthogonalLoop=1;jettySize=auto;html=1;" edge="1" parent="WIyWlLk6GJQsqaUBKTNV-1" source="uYcCShCzFwPCH8ghl1TK-55" target="uYcCShCzFwPCH8ghl1TK-58">
          <mxGeometry relative="1" as="geometry" />
        </mxCell>
        <mxCell id="uYcCShCzFwPCH8ghl1TK-62" value="" style="edgeStyle=orthogonalEdgeStyle;rounded=0;orthogonalLoop=1;jettySize=auto;html=1;" edge="1" parent="WIyWlLk6GJQsqaUBKTNV-1" source="uYcCShCzFwPCH8ghl1TK-55" target="uYcCShCzFwPCH8ghl1TK-61">
          <mxGeometry relative="1" as="geometry" />
        </mxCell>
        <mxCell id="uYcCShCzFwPCH8ghl1TK-55" value="接口保存是否成功" style="rhombus;whiteSpace=wrap;html=1;" vertex="1" parent="WIyWlLk6GJQsqaUBKTNV-1">
          <mxGeometry x="750" y="830" width="110" height="80" as="geometry" />
        </mxCell>
        <mxCell id="uYcCShCzFwPCH8ghl1TK-58" value="关闭表单，刷新列表" style="rounded=1;whiteSpace=wrap;html=1;" vertex="1" parent="WIyWlLk6GJQsqaUBKTNV-1">
          <mxGeometry x="920" y="840" width="120" height="60" as="geometry" />
        </mxCell>
        <mxCell id="uYcCShCzFwPCH8ghl1TK-60" value="&lt;span style=&quot;color: rgb(0, 0, 0); font-family: Helvetica; font-size: 12px; font-style: normal; font-variant-ligatures: normal; font-variant-caps: normal; font-weight: 400; letter-spacing: normal; orphans: 2; text-align: center; text-indent: 0px; text-transform: none; widows: 2; word-spacing: 0px; -webkit-text-stroke-width: 0px; background-color: rgb(251, 251, 251); text-decoration-thickness: initial; text-decoration-style: initial; text-decoration-color: initial; float: none; display: inline !important;&quot;&gt;是&lt;/span&gt;" style="text;whiteSpace=wrap;html=1;" vertex="1" parent="WIyWlLk6GJQsqaUBKTNV-1">
          <mxGeometry x="880" y="840" width="50" height="40" as="geometry" />
        </mxCell>
        <mxCell id="uYcCShCzFwPCH8ghl1TK-61" value="toast提示接口报错信息" style="rounded=1;whiteSpace=wrap;html=1;" vertex="1" parent="WIyWlLk6GJQsqaUBKTNV-1">
          <mxGeometry x="745" y="990" width="120" height="60" as="geometry" />
        </mxCell>
        <mxCell id="uYcCShCzFwPCH8ghl1TK-65" value="否" style="edgeLabel;html=1;align=center;verticalAlign=middle;resizable=0;points=[];" vertex="1" connectable="0" parent="WIyWlLk6GJQsqaUBKTNV-1">
          <mxGeometry x="710" y="945" as="geometry">
            <mxPoint x="86" y="3" as="offset" />
          </mxGeometry>
        </mxCell>
      </root>
    </mxGraphModel>
  </diagram>
</mxfile>
